# xmcd
#
# Track frame offsets:
#	150
#	18340
#	45167
#	60302
#	85562
#	108585
#	131855
#	155707
#	173545
#
# Disc length: 2506 seconds
#
# Revision: 0
# Processed by: cddbd v1.5.2PL0 Copyright (c) Steve Scherf et al.
# Submitted via: audiograbber 1.83.01
#
DISCID=6309c809
DTITLE=Amiga Blues Band - Not Fade Away
DYEAR=1983
DGENRE=Blues
TTITLE0=Walkin By Myself
TTITLE1=Ramblin' On My Mind
TTITLE2=Crossroad Bues
TTITLE3=Help Me
TTITLE4=I Believe I'll Dust My Broom
TTITLE5=Maggie's Farm
TTITLE6=Little Red Rooster
TTITLE7=Hoochie Coochie Man
TTITLE8=Not Fade Away
EXTD=
EXTT0=
EXTT1=
EXTT2=
EXTT3=
EXTT4=
EXTT5=
EXTT6=
EXTT7=
EXTT8=
PLAYORDER=
